<svg id="Layer_1" data-name="Layer 1" xmlns="http://www.w3.org/2000/svg" viewBox="0 0 75 75"><defs><style>.cls-1{fill:none;}.cls-2{fill:#999;}.cls-3{fill:#13C7CD;}</style></defs><title>lightBulb</title><polygon class="cls-1" points="39.3 68 39.7 66.7 35.5 66.7 35.9 68 39.3 68"/><path class="cls-2" d="M37.6,12.8A18.5,18.5,0,0,0,19.2,31.2,17.8,17.8,0,0,0,26,45.5,8.9,8.9,0,0,1,29.7,53a3.5,3.5,0,0,0-1.3,2.7,2.9,2.9,0,0,0,.6,1.9,3.4,3.4,0,0,0-.6,2,3.2,3.2,0,0,0,.6,2,3.3,3.3,0,0,0,2.7,5.2h1l1.1,3.1a1.2,1.2,0,0,0,1.2.9h5.2a1.3,1.3,0,0,0,1.2-.9l1-3.1h1.1a3.2,3.2,0,0,0,2.6-5.2,3.2,3.2,0,0,0,.7-2,3.5,3.5,0,0,0-.7-2,2.9,2.9,0,0,0,.7-1.9,3.3,3.3,0,0,0-3.3-3.3H37.6a1.3,1.3,0,0,0,0,2.6h5.9a.7.7,0,0,1,.7.7c0,.4-.3.5-.7.5a1.3,1.3,0,0,0,0,2.6.7.7,0,0,1,.7.7c0,.4-.3.6-.7.6H37.6a1.3,1.3,0,0,0-1.3,1.4,1.3,1.3,0,0,0,1.3,1.3h5.9c.4,0,.7.2.7.6a.7.7,0,0,1-.7.7H31.7a.7.7,0,0,1-.7-.7c0-.4.3-.6.7-.6A1.3,1.3,0,0,0,33,61.5a1.3,1.3,0,0,0-1.3-1.4c-.4,0-.7-.2-.7-.6a.7.7,0,0,1,.7-.7h7.2a1.3,1.3,0,1,0,0-2.6H31.7a.7.7,0,0,1-.7-.7c0-.4.3-.6.7-.6A1.2,1.2,0,0,0,33,53.6a1.3,1.3,0,0,0-.7-1.2,11.3,11.3,0,0,0-4.7-9.1,14.9,14.9,0,0,1-5.8-12.1,15.8,15.8,0,0,1,31.6,0,14.7,14.7,0,0,1-5.8,12.1,12.2,12.2,0,0,0-4.2,5.9,1.1,1.1,0,0,0,.9,1.6,1.2,1.2,0,0,0,1.6-.9,7.6,7.6,0,0,1,3.3-4.6A17.3,17.3,0,0,0,56,31.2,18.5,18.5,0,0,0,37.6,12.8Zm2.1,53.9L39.3,68H35.9l-.4-1.3Z"/><path class="cls-3" d="M35.3,39.9a2.3,2.3,0,1,0,2.3-2.3A2.3,2.3,0,0,0,35.3,39.9Z"/><polygon class="cls-3" points="35.2 23.2 36.4 35.9 38.8 35.9 40 23.2 35.2 23.2"/><rect class="cls-2" x="37" y="4.2" width="2" height="6" rx="0.3" ry="0.3"/><rect class="cls-2" x="9" y="30.2" width="6" height="2" rx="0.3" ry="0.3"/><rect class="cls-2" x="60" y="30.2" width="6" height="2" rx="0.3" ry="0.3"/><path class="cls-2" d="M16.7,48.2h5.5a.3.3,0,0,1,.3.3V50a.2.2,0,0,1-.2.2H16.7a.2.2,0,0,1-.2-.2V48.5a.2.2,0,0,1,.2-.2Z" transform="translate(-29.1 28.2) rotate(-45)"/><path class="cls-2" d="M52.8,12.2h5.5a.3.3,0,0,1,.3.3v1.5a.2.2,0,0,1-.2.2H52.8a.3.3,0,0,1-.3-.3V12.4A.2.2,0,0,1,52.8,12.2Z" transform="translate(6.9 43.1) rotate(-45)"/><path class="cls-2" d="M18.7,10.2h1.5a.3.3,0,0,1,.3.3v5.5a.2.2,0,0,1-.2.2H18.7a.3.3,0,0,1-.3-.3V10.4A.2.2,0,0,1,18.7,10.2Z" transform="translate(-3.6 17.6) rotate(-45)"/><path class="cls-2" d="M54.8,46.2h1.5a.2.2,0,0,1,.2.2V52a.2.2,0,0,1-.2.2H54.8a.3.3,0,0,1-.3-.3V46.5a.2.2,0,0,1,.2-.2Z" transform="translate(-18.5 53.7) rotate(-45)"/></svg>